<?xml version="1.0" standalone="no"?><!DOCTYPE svg PUBLIC "-//W3C//DTD SVG 1.1//EN" "http://www.w3.org/Graphics/SVG/1.1/DTD/svg11.dtd"><svg t="1585757449412" class="icon" viewBox="0 0 1024 1024" version="1.1" xmlns="http://www.w3.org/2000/svg" p-id="4303" xmlns:xlink="http://www.w3.org/1999/xlink" width="200" height="200"><defs><style type="text/css"></style></defs><path d="M1024 858V743c0-14.359-11.641-26-26-26s-26 11.641-26 26v115c0 62.859-51.141 114-114 114H743c-14.359 0-26 11.641-26 26s11.641 26 26 26h115c91.532 0 166-74.468 166-166M307 998c0-14.359-11.641-26-26-26H166c-62.859 0-114-51.141-114-114V743c0-14.359-11.641-26-26-26S0 728.641 0 743v115c0 91.532 74.468 166 166 166h115c14.359 0 26-11.641 26-26M52 281V166c0-62.86 51.141-114 114-114h115c14.359 0 26-11.641 26-26S295.359 0 281 0H166C74.468 0 0 74.467 0 166v115c0 14.359 11.641 26 26 26s26-11.641 26-26m972 0V166c0-91.533-74.468-166-166-166H743c-14.359 0-26 11.641-26 26s11.641 26 26 26h115c62.859 0 114 51.14 114 114v115c0 14.359 11.641 26 26 26s26-11.641 26-26M691.429 756.836c10.954-10.118 11.631-27.2 1.513-38.154-10.119-10.954-27.2-11.631-38.154-1.514C615.811 753.172 565.101 773 512 773c-53.101 0-103.811-19.828-142.788-55.832-10.956-10.117-28.035-9.439-38.154 1.514-10.118 10.954-9.441 28.036 1.513 38.154C381.556 802.082 445.277 827 512 827s130.444-24.918 179.429-70.164M566 578V386c0-14.912-12.088-27-27-27s-27 12.088-27 27v192c0 8.271-6.729 15-15 15h-22c-14.912 0-27 12.088-27 27s12.088 27 27 27h22c38.047 0 69-30.953 69-69m186-116.5v-77c0-14.083-11.417-25.5-25.5-25.5S701 370.417 701 384.5v77c0 14.083 11.417 25.5 25.5 25.5s25.5-11.417 25.5-25.5M303.5 487c-14.083 0-25.5-11.417-25.5-25.5v-77c0-14.083 11.417-25.5 25.5-25.5s25.5 11.417 25.5 25.5v77c0 14.083-11.417 25.5-25.5 25.5" p-id="4304"></path></svg>