<?xml version="1.0" standalone="no"?><!DOCTYPE svg PUBLIC "-//W3C//DTD SVG 1.1//EN" "http://www.w3.org/Graphics/SVG/1.1/DTD/svg11.dtd"><svg t="1585757452762" class="icon" viewBox="0 0 1024 1024" version="1.1" xmlns="http://www.w3.org/2000/svg" p-id="4426" xmlns:xlink="http://www.w3.org/1999/xlink" width="200" height="200"><defs><style type="text/css"></style></defs><path d="M127 908h165V379H127v529z m82.554-792C262.262 116 305 158.823 305 211.474 305 264.186 262.262 307 209.554 307 156.655 307 114 264.186 114 211.474 114 158.823 156.655 116 209.554 116zM396 379.15h157.741v72.277h2.236C577.91 409.815 631.63 366 711.699 366 878.199 366 909 475.484 909 617.916V908H744.588V650.873c0-61.383-1.214-140.283-85.538-140.283-85.642 0-98.7 66.8-98.7 135.745V908H396V379.15z" fill="#006A9A" p-id="4427"></path></svg>