<?xml version="1.0" standalone="no"?><!DOCTYPE svg PUBLIC "-//W3C//DTD SVG 1.1//EN" "http://www.w3.org/Graphics/SVG/1.1/DTD/svg11.dtd"><svg t="1585757324402" class="icon" viewBox="0 0 1024 1024" version="1.1" xmlns="http://www.w3.org/2000/svg" p-id="3810" xmlns:xlink="http://www.w3.org/1999/xlink" width="200" height="200"><defs><style type="text/css"></style></defs><path d="M512.4 1c88.2 152.9 94.7 347.4 0.1 511.3 163.8-94.6 255.4-266.1 255.6-442.6C692.9 26.1 605.6 1.1 512.4 1z" fill="#04A0FC" p-id="3811"></path><path d="M256.5 69.4c153 88.3 256 253.6 256 442.9 94.6-163.9 88.1-358.4-0.1-511.3h-0.4c-93.1 0-180.3 24.9-255.5 68.4z" fill="#04A0FC" p-id="3812"></path><path d="M512.5 512.3c0-189.4-103-354.6-256-442.9-77.6 44.9-142.4 109.7-187.2 187.3 176.6-0.1 348.5 91.6 443.2 255.6z" fill="#08C3AE" p-id="3813"></path><path d="M512.5 512.3c-94.7-164-266.6-255.7-443.3-255.6C25.8 331.8 1 419 1 512v0.5c153-88.3 347.6-94.8 511.5-0.2z" fill="#08C3AE" p-id="3814"></path><path d="M1 512.5c0.1 93.1 25.1 180.4 68.7 255.6C158 615.2 323.2 512.3 512.5 512.3 348.6 417.7 154 424.2 1 512.5z" fill="#1DF9DE" p-id="3815"></path><path d="M69.7 768.1c44.9 77.5 109.6 142 187.2 186.8 0.2-176.4 91.8-348 255.6-442.6-189.3 0-354.5 102.9-442.8 255.8z" fill="#1DF9DE" p-id="3816"></path><path d="M256.9 954.9C332 998.2 419.1 1023 512 1023h0.2c-87.9-152.8-94.2-347 0.3-510.7-163.8 94.6-255.4 266.1-255.6 442.6z" fill="#FFCA00" p-id="3817"></path><path d="M512.2 1023c93 0 180.2-24.9 255.3-68.4-152.5-88.4-255-253.4-255-442.3-94.5 163.7-88.2 357.9-0.3 510.7z" fill="#FFCA00" p-id="3818"></path><path d="M954.4 767.9c-176.2-0.4-347.5-92-441.9-255.6 0 188.9 102.5 353.9 255 442.3 77.4-44.8 142-109.3 186.9-186.7z" fill="#FD8C01" p-id="3819"></path><path d="M1023 512.7c-152.8 87.8-346.9 94.1-510.5-0.4 94.4 163.6 265.7 255.2 441.9 255.6 43.5-75.1 68.5-162.2 68.6-255.2z" fill="#FD8C01" p-id="3820"></path><path d="M1023 512c0-92.8-24.8-179.9-68-254.9-88.4 152.6-253.4 255.2-442.5 255.2 163.6 94.5 357.7 88.2 510.5 0.4v-0.7z" fill="#F0483D" p-id="3821"></path><path d="M954.5 256.6c-46.4-80.4-111.4-143.4-186.4-186.7-0.3 176.3-91.9 347.8-255.6 442.3 188.9 0 353.9-102.5 442.3-254.9 0-0.3-0.1-0.5-0.3-0.7z" fill="#F0483D" p-id="3822"></path></svg>